<svg xmlns="http://www.w3.org/2000/svg" width="561" height="231" viewBox="0 0 561 231">
  <g fill="none" fill-rule="evenodd">
    <g transform="translate(39.172 39.2)">
      <path fill="#93C90E" d="M221.587572,79.9307136 C211.532232,79.9307136 203.350824,72.3995701 203.350824,63.0238983 L203.389483,59.957166 L242.278131,59.957166 C255.735439,59.957166 266.681964,49.7530888 266.681964,37.2107049 L266.681964,22.7972673 C266.681964,10.2548833 255.735439,0.0508061431 242.278131,0.0508061431 L208.345939,0.0508061431 C206.4598,0.0508061431 204.553314,0.0712102166 202.679383,0.485412909 C191.645367,2.94002295 183.9828,12.2299976 183.9828,22.7972673 L183.9828,31.1629375 C183.9828,33.07888 185.378584,34.6397916 187.09788,34.6397916 L200.268299,34.6397916 C201.987595,34.6397916 203.385413,33.07888 203.385413,31.1629375 L203.385413,29.0653987 L203.385413,25.7640196 C203.385413,21.3995883 207.263495,17.8472391 212.032761,17.8472391 L238.640141,17.8472391 C243.407373,17.8472391 247.285454,21.3995883 247.285454,25.7640196 L247.285454,34.3194476 C247.285454,38.6797981 243.407373,42.2280665 238.640141,42.2280665 L170.061254,42.2280665 L170.061254,59.957166 L183.936003,59.957166 L183.936003,63.0218579 C183.936003,82.2200506 200.903116,97.7251061 221.652681,97.7251061 L284.81476,97.7251061 L284.81476,79.9286732 L221.587572,79.9307136 Z"/>
      <path fill="#FFF" d="M135.234141,17.8615219 L111.43257,17.8533603 L111.43257,94.2502924 C111.43257,96.1641945 110.030683,97.7210253 108.309352,97.7210253 L95.1368981,97.7210253 C93.4155673,97.7210253 92.0157143,96.1641945 92.0157143,94.2502924 L92.0157143,3.52970068 C92.0157143,1.61171777 93.4155673,0.0508061431 95.1368981,0.0508061431 L135.234141,0.0508061431 C155.981671,0.0508061431 172.859259,15.668084 172.859259,34.8703576 L172.859259,94.5971616 C172.859259,96.3233463 171.306806,97.7210253 169.396251,97.7210253 L156.929827,97.7210253 C155.023341,97.7210253 153.468853,96.3233463 153.468853,94.5971616 L153.468853,34.8703576 C153.468853,25.4926454 145.28948,17.8615219 135.234141,17.8615219 Z M26.3919085,17.8511158 C22.6318383,17.8511158 19.4536837,20.8382722 19.4536837,24.3763386 L19.4536837,42.2278625 L50.018497,42.2278625 C51.8903934,42.2278625 53.4123266,43.6051375 53.4123266,45.2986756 L53.4123266,56.7147547 C53.4123266,58.404212 51.8903934,59.7814869 50.018497,59.7814869 L19.4536837,59.7814869 L19.4536837,73.4093677 C19.4536837,76.9453936 22.6318383,79.9305096 26.3919085,79.9305096 L77.4967159,79.9305096 C79.3665776,79.9305096 80.8905455,81.3037037 80.8905455,82.9952014 L80.8905455,94.6561294 C80.8905455,96.3476271 79.3665776,97.7249021 77.4967159,97.7249021 L26.0358413,97.7249021 C11.7056602,97.7249021 0.0470008779,86.9617533 0.0470008779,73.7174692 L0.0470008779,24.0559946 C0.0470008779,10.8055893 11.7056602,0.048561695 26.0358413,0.048561695 L77.4967159,0.048561695 C79.4398257,0.048561695 80.8905455,1.42991747 80.8905455,3.12345558 L80.8905455,14.786424 C80.8905455,16.4779217 79.3665776,17.8511158 77.4967159,17.8511158 L26.3919085,17.8511158 Z M482.032865,64.0647101 L482.032865,75.5338398 C482.032865,87.7640415 471.367124,97.7110273 458.227225,97.7110273 L444.434197,97.7171485 L403.771316,97.7171485 C401.858727,97.7171485 400.306273,96.3153887 400.306273,94.5912445 L400.306273,83.0302964 C400.306273,82.7283161 400.367313,82.4079722 400.497532,82.0570221 C400.965506,80.7715655 402.281938,79.9064327 403.771316,79.9064327 L453.44982,79.9064327 C458.532426,79.9064327 462.624147,76.101073 462.624147,71.422419 L462.624147,69.2044962 C462.624147,64.1075586 458.870181,59.9573701 454.202648,59.9573701 L422.421102,59.9573701 C410.227324,59.9573701 400.308308,49.232989 400.308308,36.0539979 L400.306273,22.2261573 C400.306273,10.0041173 411.155134,0.0591718132 424.299102,0.0591718132 L469.653932,0.0510101838 C471.562453,0.0510101838 473.114906,1.45072963 473.114906,3.17487384 L473.114906,14.7337815 C473.114906,15.0398426 473.053866,15.3561057 472.929751,15.7009346 C472.455673,16.9945528 471.139241,17.861726 469.653932,17.861726 L440.580532,17.861726 L440.466591,17.8576452 L428.962566,17.8576452 C423.877926,17.8576452 419.741442,21.6670857 419.741442,26.3457397 L419.714991,32.9811444 C419.714991,38.0740012 423.50965,42.2241898 428.179218,42.2241898 L428.927977,42.2282706 L458.078694,42.2282706 C469.835018,42.2282706 480.982975,50.4470314 481.93927,61.2979177 C482.026761,62.2793536 482.032865,63.1832541 482.032865,64.0647101 Z M323.206115,0.0479495728 C343.249649,0.0479495728 358.662275,16.2385819 358.662275,34.6593795 L358.662275,66.2285621 C358.662275,85.4267548 341.782652,97.6957243 321.033087,97.6957243 L277.81873,97.72429 L277.81873,79.9319378 L321.033087,79.8870489 C331.090461,79.8870489 339.271869,75.6062743 339.271869,66.2285621 L339.271869,34.8634202 C339.271869,25.4816272 331.090461,17.8505037 321.033087,17.8505037 L297.227448,17.8423421 L297.209136,60.9683919 C297.209136,62.8884152 295.811317,64.445246 294.089986,64.445246 L280.93381,64.445246 C279.216548,64.445246 277.81873,62.8884152 277.81873,60.9683919 L277.81873,3.52888452 C277.81873,1.6109016 279.218583,0.0479495728 280.939914,0.0479495728 L323.206115,0.0479495728 Z M389.182732,61.5754131 L389.184767,61.5754131 L389.184767,94.2239711 C389.184767,96.1399136 387.784914,97.6967445 386.065618,97.6967445 L372.935892,97.6967445 C371.216596,97.6967445 369.818777,96.1399136 369.818777,94.2239711 L369.790292,61.5754131 L369.788257,61.5754131 L369.788257,28.9248146 C369.788257,27.0109125 371.18811,25.4540817 372.907407,25.4540817 L386.035098,25.4540817 C387.756429,25.4540817 389.154247,27.0109125 389.154247,28.9248146 L389.182732,61.5754131 Z M389.182732,7.46707475 L389.184767,7.46707475 L389.184767,14.3799749 C389.184767,16.293877 387.784914,17.8507078 386.065618,17.8507078 L372.935892,17.8507078 C371.216596,17.8507078 369.818777,16.293877 369.818777,14.3799749 L369.790292,7.46707475 L369.788257,7.46707475 L369.788257,3.52092693 C369.788257,1.60498442 371.18811,0.0501940209 372.907407,0.0501940209 L386.035098,0.0501940209 C387.756429,0.0501940209 389.154247,1.60498442 389.154247,3.52092693 L389.182732,7.46707475 Z"/>
    </g>
    <path fill="#FFF" d="M0.0476112789,25.7536135 L0.0476112789,1.71149369 C0.0476112789,1.21771511 0.301945034,0.84636097 0.810612543,0.601512088 C1.31928005,0.354622798 1.93781974,0.232198357 2.66012761,0.232198357 C3.38447014,0.232198357 4.00097516,0.354622798 4.50964267,0.601512088 C5.01831018,0.84636097 5.27467861,1.21771511 5.27467861,1.71149369 L5.27467861,23.0541546 L15.0838229,23.0541546 C15.5660397,23.0541546 15.9485576,23.2643166 16.2293421,23.6805597 C16.5101266,24.1008836 16.6505188,24.5946621 16.6505188,25.1618954 C16.6505188,25.7291286 16.5101266,26.2208668 16.2293421,26.6411907 C15.9485576,27.0594742 15.5660397,27.2696362 15.0838229,27.2696362 L2.33864974,27.2696362 C1.72214472,27.2696362 1.1870265,27.1329289 0.731260411,26.8635951 C0.275494323,26.5922209 0.0476112789,26.2208668 0.0476112789,25.7536135 Z M28.953965,25.7536135 L28.953965,1.74822102 C28.953965,1.27892733 29.1818481,0.909613598 29.6376142,0.63823942 C30.0933803,0.366865242 30.6284985,0.232198357 31.2450035,0.232198357 L45.5589072,0.232198357 C46.0940254,0.232198357 46.5029941,0.440319907 46.7837786,0.858603414 C47.0665977,1.27892733 47.2069899,1.76046346 47.2069899,2.30321182 C47.2069899,2.89492995 47.058459,3.39891057 46.7634319,3.81923448 C46.4704394,4.2395584 46.0655401,4.44767995 45.5589072,4.44767995 L34.1810324,4.44767995 L34.1810324,11.846197 L40.2911465,11.846197 C40.799814,11.846197 41.2026787,12.0359549 41.4977058,12.4175111 C41.792733,12.8031481 41.9392292,13.2499973 41.9392292,13.7682607 C41.9392292,14.2395948 41.798837,14.6619592 41.5180525,15.0455557 C41.2352334,15.4291523 40.8262647,15.6189102 40.2911465,15.6189102 L34.1810324,15.6189102 L34.1810324,23.0541546 L45.5589072,23.0541546 C46.0655401,23.0541546 46.4704394,23.2643166 46.7634319,23.6805597 C47.058459,24.1008836 47.2069899,24.6069046 47.2069899,25.1986227 C47.2069899,25.7413711 47.0665977,26.2208668 46.7837786,26.6411907 C46.5029941,27.0594742 46.0940254,27.2696362 45.5589072,27.2696362 L31.2450035,27.2696362 C30.6284985,27.2696362 30.0933803,27.1329289 29.6376142,26.8635951 C29.1818481,26.5922209 28.953965,26.2208668 28.953965,25.7536135 Z M52.7551282,25.7536135 L52.7551282,1.71149369 C52.7551282,1.21771511 53.009462,0.84636097 53.5201641,0.601512088 C54.0288316,0.354622798 54.6453367,0.232198357 55.3676445,0.232198357 C56.0919871,0.232198357 56.7084921,0.354622798 57.2171596,0.601512088 C57.7258271,0.84636097 57.9821955,1.21771511 57.9821955,1.71149369 L57.9821955,23.0541546 L67.7913398,23.0541546 C68.2735566,23.0541546 68.6560745,23.2643166 68.936859,23.6805597 C69.2176435,24.1008836 69.3600704,24.5946621 69.3600704,25.1618954 C69.3600704,25.7291286 69.2176435,26.2208668 68.936859,26.6411907 C68.6560745,27.0594742 68.2735566,27.2696362 67.7913398,27.2696362 L55.0461667,27.2696362 C54.4296616,27.2696362 53.8945434,27.1329289 53.4387773,26.8635951 C52.9830112,26.5922209 52.7551282,26.2208668 52.7551282,25.7536135 Z M74.7055555,25.7536135 L74.7055555,1.74822102 C74.7055555,1.27892733 74.9334385,0.909613598 75.3892046,0.63823942 C75.8449707,0.366865242 76.3800889,0.232198357 76.996594,0.232198357 L91.308463,0.232198357 C91.8456159,0.232198357 92.2545846,0.440319907 92.535369,0.858603414 C92.8181882,1.27892733 92.9585804,1.76046346 92.9585804,2.30321182 C92.9585804,2.89492995 92.8100495,3.39891057 92.517057,3.81923448 C92.2199952,4.2395584 91.8171305,4.44767995 91.308463,4.44767995 L79.9326228,4.44767995 L79.9326228,11.846197 L86.0427369,11.846197 C86.5514045,11.846197 86.9522345,12.0359549 87.2492963,12.4175111 C87.5443234,12.8031481 87.6908197,13.2499973 87.6908197,13.7682607 C87.6908197,14.2395948 87.5504274,14.6619592 87.269643,15.0455557 C86.9868238,15.4291523 86.5778552,15.6189102 86.0427369,15.6189102 L79.9326228,15.6189102 L79.9326228,23.0541546 L91.308463,23.0541546 C91.8171305,23.0541546 92.2199952,23.2643166 92.517057,23.6805597 C92.8100495,24.1008836 92.9585804,24.6069046 92.9585804,25.1986227 C92.9585804,25.7413711 92.8181882,26.2208668 92.535369,26.6411907 C92.2545846,27.0594742 91.8456159,27.2696362 91.308463,27.2696362 L76.996594,27.2696362 C76.3800889,27.2696362 75.8449707,27.1329289 75.3892046,26.8635951 C74.9334385,26.5922209 74.7055555,26.2208668 74.7055555,25.7536135 Z M97.9032355,19.0210854 L97.9032355,8.70274544 C97.9032355,5.79108415 98.7598316,3.65273724 100.477093,2.28362391 C102.190285,0.914510576 104.430457,0.230974112 107.18947,0.230974112 C110.003418,0.230974112 112.302595,0.873702428 114.084966,2.15507825 C115.867337,3.43645406 116.758523,5.1401942 116.758523,7.26017744 C116.758523,8.17223953 116.55709,8.79456377 116.15626,9.12715017 C115.753396,9.45973657 115.083989,9.62500956 114.146006,9.62500956 C112.428745,9.62500956 111.557906,9.12102895 111.531455,8.1089869 C111.505005,7.79068335 111.470415,7.51114755 111.431757,7.27854111 C111.391063,7.04389426 111.283226,6.73579275 111.110279,6.35423658 C110.935297,5.97064 110.713518,5.65029604 110.446976,5.39116431 C110.1784,5.13203257 109.775535,4.90962817 109.240417,4.72599151 C108.703264,4.54031444 108.074551,4.44849611 107.350209,4.44849611 C104.53626,4.44849611 103.128268,5.86657922 103.128268,8.70274544 L103.128268,19.0210854 C103.128268,21.8572516 104.562711,23.2753348 107.431595,23.2753348 C108.288191,23.2753348 109.004395,23.1508699 109.582242,22.906021 C110.158053,22.6591317 110.573126,22.3081817 110.82746,21.8511304 C111.081793,21.3961196 111.256775,20.9880381 111.35037,20.6309668 C111.443965,20.2738955 111.505005,19.835208 111.531455,19.3169445 C111.612842,18.3069429 112.469438,17.8009218 114.105313,17.8009218 C115.043296,17.8009218 115.720841,17.9661948 116.135914,18.3008216 C116.550986,18.633408 116.758523,19.2577727 116.758523,20.1677944 C116.758523,22.3877576 115.867337,24.162912 114.084966,25.4932575 C112.302595,26.8256435 109.99121,27.4908163 107.150811,27.4908163 C104.389764,27.4908163 102.157731,26.8072799 100.454712,25.440207 C98.7537276,24.0690532 97.9032355,21.9307063 97.9032355,19.0210854 Z M120.859807,2.32137145 C120.859807,1.76842105 121.000199,1.2828041 121.280984,0.862480188 C121.563803,0.442156273 121.972772,0.231994316 122.50789,0.231994316 L139.513662,0.231994316 C140.04878,0.231994316 140.457749,0.442156273 140.740568,0.862480188 C141.021353,1.2828041 141.161745,1.76842105 141.161745,2.32137145 C141.161745,2.89880673 141.015249,3.39666612 140.720221,3.81699003 C140.425194,4.23731395 140.02233,4.44747591 139.513662,4.44747591 L133.643639,4.44747591 L133.643639,25.7452479 C133.643639,26.2186224 133.383201,26.5879361 132.860291,26.8613507 C132.337381,27.1347653 131.729015,27.2694321 131.031123,27.2694321 C130.30678,27.2694321 129.690275,27.1347653 129.181608,26.8613507 C128.67294,26.5879361 128.418606,26.2186224 128.418606,25.7452479 L128.418606,4.44747591 L122.50789,4.44747591 C121.999222,4.44747591 121.596358,4.24343517 121.301331,3.8353537 C121.006303,3.42727223 120.859807,2.92329161 120.859807,2.32137145 Z M146.509672,25.7542256 L146.509672,1.71210581 C146.509672,1.31626678 146.67041,0.971437941 146.991888,0.675578874 C147.313366,0.379719808 147.716231,0.230770072 148.198448,0.230770072 L156.158077,0.230770072 C162.510317,0.230770072 165.686437,2.80984497 165.686437,7.96187353 C165.686437,9.98391722 165.210324,11.6121623 164.260133,12.8445683 C163.307907,14.0790148 162.0281,14.9155818 160.420711,15.3583502 L165.686437,24.348385 C165.820725,24.4952943 165.887869,24.6932138 165.887869,24.9401031 C165.887869,25.5563061 165.53994,26.1296606 164.842049,26.6601665 C164.144157,27.1906724 163.409641,27.453885 162.630362,27.453885 C161.855153,27.453885 161.250856,27.0723288 160.821541,26.307176 L155.114291,16.0990181 L151.736739,16.0990181 L151.736739,25.7542256 C151.736739,26.2214789 151.482405,26.5907927 150.973738,26.8642072 C150.463035,27.133541 149.84653,27.2702483 149.122188,27.2702483 C148.426331,27.2702483 147.81593,27.133541 147.293019,26.8642072 C146.772144,26.5907927 146.509672,26.2214789 146.509672,25.7542256 Z M151.736739,12.3263049 L156.158077,12.3263049 C159.024927,12.3263049 160.461404,11.0204442 160.461404,8.40668233 C160.461404,5.76843563 159.024927,4.44829207 156.158077,4.44829207 L151.736739,4.44829207 L151.736739,12.3263049 Z M171.917817,25.7536135 L171.917817,1.71149369 C171.917817,1.21771511 172.172151,0.84636097 172.682853,0.601512088 C173.191521,0.354622798 173.808026,0.232198357 174.530333,0.232198357 C175.254676,0.232198357 175.871181,0.354622798 176.379848,0.601512088 C176.888516,0.84636097 177.144884,1.21771511 177.144884,1.71149369 L177.144884,25.7536135 C177.144884,26.2208668 176.882412,26.5922209 176.359502,26.8635951 C175.836592,27.1329289 175.228225,27.2696362 174.530333,27.2696362 C173.808026,27.2696362 173.191521,27.1329289 172.682853,26.8635951 C172.172151,26.5922209 171.917817,26.2208668 171.917817,25.7536135 Z M184.18057,19.0210854 L184.18057,8.70274544 C184.18057,5.79108415 185.037166,3.65273724 186.754428,2.28362391 C188.46762,0.914510576 190.707791,0.230974112 193.466804,0.230974112 C196.280753,0.230974112 198.57993,0.873702428 200.362301,2.15507825 C202.144672,3.43645406 203.035857,5.1401942 203.035857,7.26017744 C203.035857,8.17223953 202.834425,8.79456377 202.433595,9.12715017 C202.03073,9.45973657 201.361324,9.62500956 200.421306,9.62500956 C198.706079,9.62500956 197.835241,9.12102895 197.80879,8.1089869 C197.782339,7.79068335 197.74775,7.51114755 197.709091,7.27854111 C197.668398,7.04389426 197.56056,6.73579275 197.387613,6.35423658 C197.212632,5.97064 196.990852,5.65029604 196.724311,5.39116431 C196.455734,5.13203257 196.05287,4.90962817 195.517751,4.72599151 C194.980598,4.54031444 194.351885,4.44849611 193.627543,4.44849611 C190.813594,4.44849611 189.405603,5.86657922 189.405603,8.70274544 L189.405603,19.0210854 C189.405603,21.8572516 190.840045,23.2753348 193.70893,23.2753348 C194.565526,23.2753348 195.28173,23.1508699 195.859576,22.906021 C196.435388,22.6591317 196.85046,22.3081817 197.104794,21.8511304 C197.359128,21.3961196 197.534109,20.9880381 197.627704,20.6309668 C197.721299,20.2738955 197.782339,19.835208 197.80879,19.3169445 C197.890177,18.3069429 198.746773,17.8009218 200.382647,17.8009218 C201.32063,17.8009218 201.996141,17.9661948 202.413248,18.3008216 C202.828321,18.633408 203.035857,19.2577727 203.035857,20.1677944 C203.035857,22.3877576 202.144672,24.162912 200.362301,25.4932575 C198.57993,26.8256435 196.268545,27.4908163 193.428145,27.4908163 C190.665063,27.4908163 188.435065,26.8072799 186.732046,25.440207 C185.031062,24.0690532 184.18057,21.9307063 184.18057,19.0210854 Z M209.211284,25.7536135 L209.211284,1.71149369 C209.211284,1.21771511 209.465618,0.84636097 209.97632,0.601512088 C210.484988,0.354622798 211.101493,0.232198357 211.823801,0.232198357 C212.548143,0.232198357 213.164648,0.354622798 213.673316,0.601512088 C214.181983,0.84636097 214.438352,1.21771511 214.438352,1.71149369 L214.438352,25.7536135 C214.438352,26.2208668 214.175879,26.5922209 213.652969,26.8635951 C213.130059,27.1329289 212.521692,27.2696362 211.823801,27.2696362 C211.101493,27.2696362 210.484988,27.1329289 209.97632,26.8635951 C209.465618,26.5922209 209.211284,26.2208668 209.211284,25.7536135 Z M219.825547,2.32137145 C219.825547,1.76842105 219.96594,1.2828041 220.246724,0.862480188 C220.529543,0.442156273 220.936477,0.231994316 221.47363,0.231994316 L238.479402,0.231994316 C239.014521,0.231994316 239.423489,0.442156273 239.706308,0.862480188 C239.987093,1.2828041 240.127485,1.76842105 240.127485,2.32137145 C240.127485,2.89880673 239.980989,3.39666612 239.685962,3.81699003 C239.390934,4.23731395 238.98807,4.44747591 238.479402,4.44747591 L232.609379,4.44747591 L232.609379,25.7452479 C232.609379,26.2186224 232.348941,26.5879361 231.826031,26.8613507 C231.303121,27.1347653 230.694755,27.2694321 229.996863,27.2694321 C229.27252,27.2694321 228.656015,27.1347653 228.147348,26.8613507 C227.63868,26.5879361 227.384347,26.2186224 227.384347,25.7452479 L227.384347,4.44747591 L221.47363,4.44747591 C220.964963,4.44747591 220.562098,4.24343517 220.267071,3.8353537 C219.972044,3.42727223 219.825547,2.92329161 219.825547,2.32137145 Z M245.475615,25.7536135 L245.475615,1.74822102 C245.475615,1.27892733 245.703498,0.909613598 246.159264,0.63823942 C246.61503,0.366865242 247.150149,0.232198357 247.766654,0.232198357 L262.080557,0.232198357 C262.615676,0.232198357 263.024644,0.440319907 263.305429,0.858603414 C263.588248,1.27892733 263.72864,1.76046346 263.72864,2.30321182 C263.72864,2.89492995 263.580109,3.39891057 263.287117,3.81923448 C262.99209,4.2395584 262.58719,4.44767995 262.080557,4.44767995 L250.702683,4.44767995 L250.702683,11.846197 L256.812797,11.846197 C257.321464,11.846197 257.724329,12.0359549 258.019356,12.4175111 C258.314383,12.8031481 258.460879,13.2499973 258.460879,13.7682607 C258.460879,14.2395948 258.320487,14.6619592 258.039703,15.0455557 C257.756884,15.4291523 257.347915,15.6189102 256.812797,15.6189102 L250.702683,15.6189102 L250.702683,23.0541546 L262.080557,23.0541546 C262.58719,23.0541546 262.99209,23.2643166 263.287117,23.6805597 C263.580109,24.1008836 263.72864,24.6069046 263.72864,25.1986227 C263.72864,25.7413711 263.588248,26.2208668 263.305429,26.6411907 C263.024644,27.0594742 262.615676,27.2696362 262.080557,27.2696362 L247.766654,27.2696362 C247.150149,27.2696362 246.61503,27.1329289 246.159264,26.8635951 C245.703498,26.5922209 245.475615,26.2208668 245.475615,25.7536135 Z M279.809248,25.7536135 L279.809248,1.74822102 C279.809248,1.27892733 280.037131,0.909613598 280.492897,0.63823942 C280.948663,0.366865242 281.483781,0.232198357 282.100286,0.232198357 L296.412155,0.232198357 C296.949308,0.232198357 297.358277,0.440319907 297.639061,0.858603414 C297.919846,1.27892733 298.062273,1.76046346 298.062273,2.30321182 C298.062273,2.89492995 297.913742,3.39891057 297.618715,3.81923448 C297.323688,4.2395584 296.920823,4.44767995 296.412155,4.44767995 L285.036315,4.44767995 L285.036315,11.846197 L291.146429,11.846197 C291.655097,11.846197 292.055927,12.0359549 292.352989,12.4175111 C292.648016,12.8031481 292.794512,13.2499973 292.794512,13.7682607 C292.794512,14.2395948 292.65412,14.6619592 292.373335,15.0455557 C292.090516,15.4291523 291.681548,15.6189102 291.146429,15.6189102 L285.036315,15.6189102 L285.036315,23.0541546 L296.412155,23.0541546 C296.920823,23.0541546 297.323688,23.2643166 297.618715,23.6805597 C297.913742,24.1008836 298.062273,24.6069046 298.062273,25.1986227 C298.062273,25.7413711 297.919846,26.2208668 297.639061,26.6411907 C297.358277,27.0594742 296.949308,27.2696362 296.412155,27.2696362 L282.100286,27.2696362 C281.483781,27.2696362 280.948663,27.1329289 280.492897,26.8635951 C280.037131,26.5922209 279.809248,26.2208668 279.809248,25.7536135 Z M303.609394,25.7536135 L303.609394,1.74822102 C303.609394,1.25444244 303.863727,0.879007488 304.372395,0.619875754 C304.881062,0.36074402 305.499602,0.232198357 306.22191,0.232198357 C307.188378,0.232198357 307.924929,0.39135013 308.433596,0.713734492 C308.942264,1.03407845 309.505867,1.72373613 310.122372,2.78270755 L317.880569,16.5799421 L317.880569,1.71149369 C317.880569,1.21771511 318.134903,0.84636097 318.645605,0.601512088 C319.154273,0.354622798 319.770778,0.232198357 320.49512,0.232198357 C321.217428,0.232198357 321.833933,0.354622798 322.344635,0.601512088 C322.853303,0.84636097 323.107637,1.21771511 323.107637,1.71149369 L323.107637,25.7536135 C323.107637,26.2208668 322.847199,26.5922209 322.324289,26.8635951 C321.801378,27.1329289 321.190977,27.2696362 320.49512,27.2696362 C319.074921,27.2696362 318.069794,26.7636152 317.479739,25.7536135 L308.836461,10.8851651 L308.836461,25.7536135 C308.836461,26.2208668 308.573989,26.5922209 308.051078,26.8635951 C307.528168,27.1329289 306.919802,27.2696362 306.22191,27.2696362 C305.499602,27.2696362 304.881062,27.1329289 304.372395,26.8635951 C303.863727,26.5922209 303.609394,26.2208668 303.609394,25.7536135 Z M340.958407,25.7542256 L340.958407,1.71210581 C340.958407,1.31626678 341.119146,0.971437941 341.440624,0.675578874 C341.762102,0.379719808 342.164967,0.230770072 342.647183,0.230770072 L350.606813,0.230770072 C356.959052,0.230770072 360.135172,2.80984497 360.135172,7.96187353 C360.135172,9.98391722 359.65906,11.6121623 358.708869,12.8445683 C357.756643,14.0790148 356.476836,14.9155818 354.869446,15.3583502 L360.135172,24.348385 C360.269461,24.4952943 360.336605,24.6932138 360.336605,24.9401031 C360.336605,25.5563061 359.988676,26.1296606 359.290784,26.6601665 C358.592892,27.1906724 357.858377,27.453885 357.079098,27.453885 C356.303889,27.453885 355.699592,27.0723288 355.270276,26.307176 L349.563027,16.0990181 L346.185475,16.0990181 L346.185475,25.7542256 C346.185475,26.2214789 345.931141,26.5907927 345.422473,26.8642072 C344.911771,27.133541 344.295266,27.2702483 343.570924,27.2702483 C342.875066,27.2702483 342.264665,27.133541 341.741755,26.8642072 C341.22088,26.5907927 340.958407,26.2214789 340.958407,25.7542256 Z M346.185475,12.3263049 L350.606813,12.3263049 C353.475697,12.3263049 354.91014,11.0204442 354.91014,8.40668233 C354.91014,5.76843563 353.475697,4.44829207 350.606813,4.44829207 L346.185475,4.44829207 L346.185475,12.3263049 Z M366.36757,25.7536135 L366.36757,1.74822102 C366.36757,1.27892733 366.595453,0.909613598 367.051219,0.63823942 C367.506985,0.366865242 368.042104,0.232198357 368.658609,0.232198357 L382.972512,0.232198357 C383.507631,0.232198357 383.916599,0.440319907 384.197384,0.858603414 C384.480203,1.27892733 384.620595,1.76046346 384.620595,2.30321182 C384.620595,2.89492995 384.472064,3.39891057 384.179072,3.81923448 C383.884045,4.2395584 383.479145,4.44767995 382.972512,4.44767995 L371.594637,4.44767995 L371.594637,11.846197 L377.704752,11.846197 C378.213419,11.846197 378.616284,12.0359549 378.911311,12.4175111 C379.206338,12.8031481 379.352834,13.2499973 379.352834,13.7682607 C379.352834,14.2395948 379.212442,14.6619592 378.931658,15.0455557 C378.648839,15.4291523 378.23987,15.6189102 377.704752,15.6189102 L371.594637,15.6189102 L371.594637,23.0541546 L382.972512,23.0541546 C383.479145,23.0541546 383.884045,23.2643166 384.179072,23.6805597 C384.472064,24.1008836 384.620595,24.6069046 384.620595,25.1986227 C384.620595,25.7413711 384.480203,26.2208668 384.197384,26.6411907 C383.916599,27.0594742 383.507631,27.2696362 382.972512,27.2696362 L368.658609,27.2696362 C368.042104,27.2696362 367.506985,27.1329289 367.051219,26.8635951 C366.595453,26.5922209 366.36757,26.2208668 366.36757,25.7536135 Z M388.720862,23.0153869 C388.720862,22.450194 388.954849,21.8747991 389.422823,21.2953235 C389.892832,20.7178882 390.421846,20.4281503 391.011901,20.4281503 C391.359829,20.4281503 391.75659,20.5811809 392.198113,20.887242 C392.639637,21.1953435 393.068952,21.5360915 393.484025,21.9074457 C393.899097,22.2767594 394.495256,22.6175074 395.274534,22.9256089 C396.049744,23.23167 396.908374,23.3847006 397.846357,23.3847006 C399.134303,23.3847006 400.20454,23.1153668 401.063171,22.5705781 C401.919767,22.0298701 402.349082,21.2300304 402.349082,20.1669782 C402.349082,19.4283507 402.115095,18.7692992 401.645086,18.1898235 C401.177112,17.6103478 400.560607,17.1288116 399.795571,16.7472555 C399.03257,16.3636589 398.194286,15.9943452 397.282754,15.6372739 C396.371221,15.2802026 395.453585,14.8782423 394.529845,14.4354739 C393.606105,13.9906651 392.759682,13.4928057 391.996681,12.9357745 C391.23368,12.3828241 390.617175,11.6421563 390.147166,10.7178517 C389.677157,9.7915068 389.44317,8.73865661 389.44317,7.55522035 C389.44317,6.22691516 389.732093,5.05776175 390.307905,4.0457197 C390.885751,3.03163724 391.654856,2.24404001 392.61929,1.67884717 C393.583724,1.11773515 394.617336,0.703532455 395.716058,0.440319907 C396.81478,0.179147766 397.980645,0.0465212876 399.213656,0.0465212876 C399.909513,0.0465212876 400.648098,0.0914102494 401.425342,0.179147766 C402.202586,0.268925689 403.026627,0.413794611 403.897466,0.617835346 C404.768305,0.819835674 405.478405,1.13609881 406.027765,1.56458436 C406.577126,1.99715072 406.851807,2.50317174 406.851807,3.08468784 C406.851807,3.63355741 406.664617,4.20079066 406.288203,4.79046838 C405.913824,5.37606529 405.405156,5.66784354 404.762201,5.66784354 C404.520075,5.66784354 403.862877,5.4331967 402.790605,4.96594342 C401.718334,4.49664972 400.526018,4.26404329 399.213656,4.26404329 C397.767005,4.26404329 396.647937,4.51501339 395.85645,5.02103441 C395.064963,5.52705544 394.670237,6.22283434 394.670237,7.11245195 C394.670237,7.82659452 394.991715,8.44891877 395.634671,8.97942468 C396.277627,9.50993059 397.075217,9.94045654 398.027443,10.2730429 C398.979668,10.6056293 400.011246,11.0259533 401.122176,11.5319743 C402.235141,12.0359549 403.266718,12.5868649 404.218944,13.1765426 C405.169135,13.7682607 405.96876,14.6272722 406.611716,15.7494963 C407.254672,16.8696799 407.576149,18.1837022 407.576149,19.6874825 C407.576149,22.2155472 406.697172,24.168217 404.943286,25.5414112 C403.185331,26.9166457 400.873946,27.6022226 398.007096,27.6022226 C395.459689,27.6022226 393.276488,27.1206865 391.453424,26.1596546 C389.63036,25.1986227 388.720862,24.1518938 388.720862,23.0153869 Z M414.060439,25.7536135 L414.060439,1.74822102 C414.060439,1.27892733 414.288322,0.909613598 414.744088,0.63823942 C415.199855,0.366865242 415.734973,0.232198357 416.351478,0.232198357 L430.663347,0.232198357 C431.2005,0.232198357 431.609468,0.440319907 431.890253,0.858603414 C432.173072,1.27892733 432.313464,1.76046346 432.313464,2.30321182 C432.313464,2.89492995 432.164933,3.39891057 431.871941,3.81923448 C431.574879,4.2395584 431.172014,4.44767995 430.663347,4.44767995 L419.287507,4.44767995 L419.287507,11.846197 L425.397621,11.846197 C425.906288,11.846197 426.307118,12.0359549 426.60418,12.4175111 C426.899207,12.8031481 427.045703,13.2499973 427.045703,13.7682607 C427.045703,14.2395948 426.905311,14.6619592 426.624527,15.0455557 C426.341708,15.4291523 425.932739,15.6189102 425.397621,15.6189102 L419.287507,15.6189102 L419.287507,23.0541546 L430.663347,23.0541546 C431.172014,23.0541546 431.574879,23.2643166 431.871941,23.6805597 C432.164933,24.1008836 432.313464,24.6069046 432.313464,25.1986227 C432.313464,25.7413711 432.173072,26.2208668 431.890253,26.6411907 C431.609468,27.0594742 431.2005,27.2696362 430.663347,27.2696362 L416.351478,27.2696362 C415.734973,27.2696362 415.199855,27.1329289 414.744088,26.8635951 C414.288322,26.5922209 414.060439,26.2208668 414.060439,25.7536135 Z M462.735444,19.0210854 L462.735444,1.71026944 C462.735444,1.21649086 462.989777,0.847177133 463.498445,0.600287843 C464.007112,0.355438961 464.625652,0.230974112 465.34796,0.230974112 C466.072303,0.230974112 466.688808,0.355438961 467.197475,0.600287843 C467.706143,0.847177133 467.962511,1.21649086 467.962511,1.71026944 L467.962511,19.0210854 C467.962511,21.8572516 469.435612,23.2753348 472.383849,23.2753348 C475.332086,23.2753348 476.807222,21.8572516 476.807222,19.0210854 L476.807222,1.71026944 C476.807222,1.21649086 477.061555,0.847177133 477.570223,0.600287843 C478.07889,0.355438961 478.695395,0.230974112 479.419738,0.230974112 C480.144081,0.230974112 480.758551,0.355438961 481.269253,0.600287843 C481.777921,0.847177133 482.032254,1.21649086 482.032254,1.71026944 L482.032254,19.0210854 C482.032254,21.9307063 481.155312,24.0690532 479.399391,25.440207 C477.643471,26.8072799 475.305635,27.4908163 472.383849,27.4908163 C469.462063,27.4908163 467.124227,26.8134011 465.368307,25.4565302 C463.612386,24.1016997 462.735444,21.9551912 462.735444,19.0210854 Z M19.3218371,0.705776903 C19.3218371,0.705776903 19.9546195,-0.130790111 20.8437703,0.177311399 C20.8437703,0.177311399 22.3758768,0.569069611 22.9659311,1.24852526 C22.9659311,1.24852526 23.3525184,1.87697072 23.0452832,2.52786067 L20.3859695,8.11041519 C20.3859695,8.11041519 19.9240994,8.77558798 18.853863,8.66540599 C18.853863,8.66540599 18.249566,8.69397169 17.687997,8.13898089 C17.687997,8.13898089 16.8517477,7.33097958 17.244439,6.49645297 L19.3218371,0.705776903 Z M452.014157,21.3889782 L441.971026,21.3889782 L440.471474,26.3124811 C440.259868,26.9490882 439.596566,27.2694321 438.479532,27.2694321 C437.602589,27.2694321 437.19362,27.0653914 436.398064,26.6573099 C435.600474,26.2471881 435.201678,25.741167 435.201678,25.1351661 C435.201678,25.0821155 435.230164,24.949489 435.283065,24.739327 L442.93139,1.83371409 C443.14503,1.26035962 443.588588,0.811470004 444.184747,0.487045235 C445.018961,0.0340748028 446.186862,0.00754950721 446.992591,0.00754950721 C447.796286,0.00754950721 448.966221,0.0340748028 449.800436,0.487045235 C450.396594,0.811470004 450.840152,1.26035962 451.053793,1.83371409 L458.702117,24.739327 C458.755019,24.949489 458.783504,25.0821155 458.783504,25.1351661 C458.783504,25.741167 458.384709,26.2471881 457.587118,26.6573099 C456.791562,27.0653914 456.382593,27.2694321 455.505651,27.2694321 C454.388617,27.2694321 453.725314,26.9490882 453.513709,26.3124811 L452.014157,21.3889782 Z M443.118579,17.616265 L450.866603,17.616265 L446.992591,4.88004227 L443.118579,17.616265 Z" transform="translate(39.172 163.741)"/>
  </g>
</svg>
